<?xml version="1.0" encoding="utf-8"?>
<!-- Generator: Adobe Illustrator 22.1.0, SVG Export Plug-In . SVG Version: 6.00 Build 0)  -->
<svg version="1.1" id="Layer_1" xmlns="http://www.w3.org/2000/svg" xmlns:xlink="http://www.w3.org/1999/xlink" x="0px" y="0px"
	 viewBox="0 0 900 900" style="enable-background:new 0 0 900 900;" xml:space="preserve">
<style type="text/css">
	.st0{clip-path:url(#SVGID_2_);fill:#6A99AD;}
	.st1{fill:#FFFFFF;}
	.st2{font-family:'ZurichBT-ExtraBlack';}
	.st3{font-size:84px;}
	.st4{fill:#33394D;}
	.st5{font-size:65px;}
	.st6{clip-path:url(#SVGID_4_);fill:#6998AB;}
	.st7{clip-path:url(#SVGID_4_);fill:none;stroke:#FFFFFF;stroke-width:6;stroke-miterlimit:10;}
	.st8{clip-path:url(#SVGID_4_);fill:#33394D;}
	.st9{clip-path:url(#SVGID_4_);fill:#FFFFFF;}
</style>
<g>
	<defs>
		<rect id="SVGID_1_" x="-510.6" y="203.5" width="623.6" height="342.9"/>
	</defs>
	<clipPath id="SVGID_2_">
		<use xlink:href="#SVGID_1_"  style="overflow:visible;"/>
	</clipPath>
	<path class="st0" d="M95.4,372.3c0,72-127.5,130.5-284.7,130.5c-157.2,0-284.7-58.4-284.7-130.5c0-72,127.5-130.5,284.7-130.5
		C-32.1,241.9,95.4,300.3,95.4,372.3"/>
</g>
<text transform="matrix(1 0 0 1 191.4932 411.9941)" class="st1 st2 st3">TRA</text>
<text transform="matrix(1 0 0 1 287.0947 471.8428)" class="st4 st2 st5">RO</text>
<text transform="matrix(1 0 0 1 533.7285 472.1533)" class="st1 st2 st3">R</text>
<g>
	<defs>
		<rect id="SVGID_3_" width="900" height="900"/>
	</defs>
	<clipPath id="SVGID_4_">
		<use xlink:href="#SVGID_3_"  style="overflow:visible;"/>
	</clipPath>
	<polygon class="st6" points="449.7,468.1 472.1,368.7 524.1,368.7 524.1,394.2 487.3,394.2 487.3,405 521.5,405 521.5,430.6 
		487.3,430.6 487.3,442.3 525.4,442.3 525.4,468.1 	"/>
	<polygon class="st7" points="449.7,468.1 472.1,368.7 524.1,368.7 524.1,394.2 487.3,394.2 487.3,405 521.5,405 521.5,430.6 
		487.3,430.6 487.3,442.3 525.4,442.3 525.4,468.1 	"/>
	<path class="st8" d="M396.1,322.1c4.6,6.4,9.1,12.8,13.7,19.3c-0.2,0-0.3,0.1-0.4,0.1c-1.6,0.3-3.2,0.6-4.8,1
		c-0.3,0.1-0.6,0-0.8-0.3c-5.7-5.8-11.5-11.6-17.2-17.4c-0.3-0.3-0.5-0.2-0.8-0.2c-4.1,0.8-8.2,1.6-12.4,2.3
		c-1.7,0.3-3.5,0.4-5.2-0.1c-1.9-0.6-2.9-2.1-2.6-3.9c0.2-1,0.7-1.7,1.4-2.3c1.4-1.2,3.1-1.9,4.9-2.2c4.1-0.8,8.2-1.6,12.3-2.3
		c0.4-0.1,0.6-0.2,0.8-0.6c3.3-7.3,6.6-14.5,9.9-21.7c0.1-0.3,0.3-0.5,0.7-0.6c1.5-0.3,3.1-0.6,4.6-0.9c0.2,0,0.3-0.1,0.6-0.1
		c-2,7.6-3.9,15.1-5.9,22.6c0.2,0,0.4,0,0.5-0.1c4.6-0.7,9.1-1.5,13.7-2.2c0.4-0.1,0.5-0.2,0.7-0.5c1.3-2.7,2.7-5.3,4-8
		c0.2-0.4,0.4-0.6,0.8-0.6c0.7-0.1,1.4-0.2,2.1-0.4c0,0.1,0,0.3,0,0.5c-0.1,3.3-0.3,6.6-0.4,9.8c0,0.3,0.1,0.7,0.2,1
		c1.4,3.5,2.8,7,4.1,10.6c0.1,0.2,0.1,0.3,0.2,0.5c-0.9,0.2-1.7,0.4-2.5,0.5c-0.1,0-0.4-0.1-0.5-0.3c-2.3-2.3-4.5-4.6-6.8-6.9
		c-0.2-0.2-0.4-0.3-0.7-0.2c-4.6,1.1-9.2,2.3-13.9,3.4C396.4,321.9,396.3,322,396.1,322.1"/>
	<polygon class="st9" points="414.2,367.2 411.4,352.2 372.2,352.2 386.8,402.9 387.1,404.1 414.6,369.4 	"/>
	<polygon class="st8" points="461.7,365.2 434.9,446.9 416.7,381.1 390.1,414.4 406.3,471 457.5,471.1 487.4,365.5 	"/>
	<path class="st8" d="M647.8,345.1c-1.4-11.4-6.3-20.9-15-28.5c-7.4-6.6-16.2-10.7-25.6-13.7c-11.5-3.7-23.4-5.4-35.4-6.4
		c-11.7-0.9-23.4-1-35-0.3c-11.2,0.7-22.4,1.6-33.6,2.8c-10.9,1.2-21.7,2.8-32.5,4.6c-12.5,2.1-24.9,4.7-37.4,7.1
		c-3.6,0.7-5.1,1.1-8.8,1.9c0.2,0.1,6.2-0.8,6.4-0.9c14.8-2.7,19.4-3.1,33.5-4.9c13.1-1.7,26.6-2.6,39.8-3.2
		c12.5-0.6,25.1-0.6,37.7-0.7c12.9,0,25.8,1,38.6,3c10.1,1.6,20,3.9,29.5,7.9c7.1,3.1,13.7,7,18.7,13c9.2,11,10.7,26.6,6.4,39.6
		c-3,9-10.5,15.2-19,19.1c-10.2,4.7-21,6.9-32.1,7.6c-3.4,0.2-6.7,0.3-10.1,0.4l0,0h-9.9v-38.5h-24.5l0.2,50.3H555
		c0.1,0,0.2,0.1,0.3,0.1c0.8,0,1.5,0,2.3-0.1h2.5l0.1-0.1c7.5-0.2,15-0.5,22.5-0.7l14.3-1.5c0.6-0.1,1.1-0.2,1.6-0.3
		c9.1-1.6,17.9-4.3,26.1-8.7c9.6-5.2,16.8-12.6,20.6-23C648.2,362.6,648.9,353.9,647.8,345.1"/>
</g>
</svg>
